<svg xmlns="http://www.w3.org/2000/svg" xmlns:xlink="http://www.w3.org/1999/xlink" width="500" zoomAndPan="magnify" viewBox="0 0 375 374.999991" height="500" preserveAspectRatio="xMidYMid meet" version="1.0"><defs><clipPath id="78ff989333"><path d="M 66 179.410156 L 310 179.410156 L 310 195.910156 L 66 195.910156 Z M 66 179.410156 " clip-rule="nonzero"/></clipPath><clipPath id="9961c67296"><path d="M 66 243.769531 L 310 243.769531 L 310 260.269531 L 66 260.269531 Z M 66 243.769531 " clip-rule="nonzero"/></clipPath><clipPath id="8c1ece6a8b"><path d="M 66 115.234375 L 310 115.234375 L 310 131.734375 L 66 131.734375 Z M 66 115.234375 " clip-rule="nonzero"/></clipPath></defs><g clip-path="url(#78ff989333)"><path fill="#000000" d="M 301.058594 179.410156 L 74.308594 179.410156 C 69.835938 179.410156 66.210938 183.105469 66.210938 187.660156 C 66.210938 192.21875 69.835938 195.910156 74.308594 195.910156 L 301.058594 195.910156 C 305.53125 195.910156 309.15625 192.21875 309.15625 187.660156 C 309.15625 183.105469 305.53125 179.410156 301.058594 179.410156 Z M 301.058594 179.410156 " fill-opacity="1" fill-rule="nonzero"/></g><g clip-path="url(#9961c67296)"><path fill="#000000" d="M 301.058594 243.769531 L 74.308594 243.769531 C 69.835938 243.769531 66.210938 247.460938 66.210938 252.019531 C 66.210938 256.574219 69.835938 260.269531 74.308594 260.269531 L 301.058594 260.269531 C 305.53125 260.269531 309.15625 256.574219 309.15625 252.019531 C 309.15625 247.460938 305.53125 243.769531 301.058594 243.769531 Z M 301.058594 243.769531 " fill-opacity="1" fill-rule="nonzero"/></g><g clip-path="url(#8c1ece6a8b)"><path fill="#000000" d="M 301.058594 115.234375 L 74.308594 115.234375 C 69.835938 115.234375 66.210938 118.929688 66.210938 123.484375 C 66.210938 128.042969 69.835938 131.734375 74.308594 131.734375 L 301.058594 131.734375 C 305.53125 131.734375 309.15625 128.042969 309.15625 123.484375 C 309.15625 118.929688 305.53125 115.234375 301.058594 115.234375 Z M 301.058594 115.234375 " fill-opacity="1" fill-rule="nonzero"/></g></svg>